<svg xmlns="http://www.w3.org/2000/svg" xmlns:xlink="http://www.w3.org/1999/xlink" object-fit="cover" width="250px" zoomAndPan="magnify" viewBox="0 0 1440 809.999993" height="200px" preserveAspectRatio="xMidYMid meet" version="1.0"><defs><clipPath id="71395c3e20"><path d="M 552 234.382812 L 890 234.382812 L 890 575.632812 L 552 575.632812 Z M 552 234.382812 " clip-rule="nonzero"/></clipPath><clipPath id="8e111512ed"><path d="M 795.910156 498.234375 L 927.910156 498.234375 L 927.910156 630 L 795.910156 630 Z M 795.910156 498.234375 " clip-rule="nonzero"/></clipPath></defs><g clip-path="url(#71395c3e20)"><path fill="#000000" d="M 627.164062 327.871094 C 627.164062 326.34375 627.203125 324.816406 627.277344 323.292969 C 627.355469 321.765625 627.46875 320.246094 627.621094 318.726562 C 627.769531 317.207031 627.960938 315.691406 628.183594 314.179688 C 628.410156 312.671875 628.671875 311.167969 628.972656 309.667969 C 629.269531 308.171875 629.605469 306.683594 629.976562 305.203125 C 630.351562 303.71875 630.757812 302.25 631.203125 300.789062 C 631.644531 299.328125 632.125 297.878906 632.640625 296.441406 C 633.15625 295.003906 633.707031 293.578125 634.292969 292.167969 C 634.875 290.757812 635.496094 289.363281 636.148438 287.984375 C 636.800781 286.601562 637.488281 285.238281 638.210938 283.894531 C 638.929688 282.546875 639.683594 281.21875 640.46875 279.910156 C 641.253906 278.601562 642.070312 277.308594 642.917969 276.039062 C 643.769531 274.769531 644.648438 273.523438 645.558594 272.296875 C 646.464844 271.070312 647.40625 269.867188 648.375 268.6875 C 649.34375 267.507812 650.339844 266.351562 651.367188 265.21875 C 652.390625 264.089844 653.445312 262.984375 654.523438 261.902344 C 655.601562 260.824219 656.707031 259.769531 657.839844 258.746094 C 658.972656 257.71875 660.125 256.722656 661.308594 255.753906 C 662.488281 254.785156 663.691406 253.84375 664.917969 252.933594 C 666.144531 252.023438 667.390625 251.144531 668.660156 250.296875 C 669.929688 249.449219 671.21875 248.628906 672.527344 247.84375 C 673.835938 247.058594 675.164062 246.304688 676.511719 245.585938 C 677.859375 244.863281 679.222656 244.179688 680.601562 243.523438 C 681.980469 242.871094 683.375 242.25 684.785156 241.664062 C 686.195312 241.082031 687.621094 240.53125 689.058594 240.015625 C 690.496094 239.5 691.945312 239.019531 693.40625 238.574219 C 694.867188 238.132812 696.335938 237.722656 697.820312 237.351562 C 699.300781 236.976562 700.789062 236.640625 702.285156 236.34375 C 703.785156 236.042969 705.285156 235.78125 706.796875 235.554688 C 708.308594 235.332031 709.824219 235.140625 711.34375 234.992188 C 712.863281 234.839844 714.382812 234.726562 715.910156 234.648438 C 717.433594 234.574219 718.960938 234.53125 720.488281 234.53125 C 843.839844 238.894531 844.082031 416.453125 720.804688 421.191406 C 719.273438 421.195312 717.742188 421.164062 716.214844 421.089844 C 714.6875 421.019531 713.160156 420.910156 711.636719 420.765625 C 710.113281 420.617188 708.59375 420.433594 707.082031 420.210938 C 705.566406 419.992188 704.058594 419.734375 702.558594 419.4375 C 701.054688 419.144531 699.5625 418.8125 698.078125 418.441406 C 696.59375 418.074219 695.117188 417.667969 693.652344 417.226562 C 692.1875 416.785156 690.734375 416.308594 689.292969 415.796875 C 687.851562 415.285156 686.421875 414.738281 685.007812 414.15625 C 683.59375 413.574219 682.191406 412.957031 680.808594 412.304688 C 679.421875 411.652344 678.054688 410.96875 676.703125 410.25 C 675.351562 409.53125 674.019531 408.777344 672.707031 407.996094 C 671.394531 407.210938 670.097656 406.394531 668.824219 405.546875 C 667.550781 404.699219 666.300781 403.820312 665.066406 402.910156 C 663.835938 402 662.628906 401.0625 661.445312 400.09375 C 660.261719 399.125 659.101562 398.128906 657.964844 397.101562 C 656.828125 396.078125 655.71875 395.023438 654.636719 393.945312 C 653.550781 392.863281 652.496094 391.757812 651.464844 390.625 C 650.4375 389.492188 649.433594 388.335938 648.460938 387.15625 C 647.488281 385.972656 646.546875 384.769531 645.632812 383.542969 C 644.71875 382.3125 643.835938 381.066406 642.984375 379.792969 C 642.132812 378.523438 641.3125 377.230469 640.523438 375.921875 C 639.734375 374.609375 638.980469 373.28125 638.257812 371.929688 C 637.53125 370.582031 636.84375 369.21875 636.1875 367.835938 C 635.53125 366.453125 634.910156 365.054688 634.320312 363.640625 C 633.734375 362.230469 633.183594 360.800781 632.664062 359.363281 C 632.148438 357.921875 631.664062 356.46875 631.21875 355.007812 C 630.773438 353.542969 630.363281 352.070312 629.988281 350.585938 C 629.617188 349.101562 629.277344 347.609375 628.980469 346.109375 C 628.679688 344.609375 628.414062 343.101562 628.1875 341.589844 C 627.960938 340.074219 627.773438 338.554688 627.621094 337.035156 C 627.46875 335.511719 627.355469 333.984375 627.28125 332.457031 C 627.203125 330.929688 627.164062 329.398438 627.164062 327.871094 Z M 814.945312 421.238281 C 813.703125 420.472656 812.378906 419.902344 810.96875 419.523438 C 809.5625 419.148438 808.128906 418.976562 806.671875 419.011719 C 805.214844 419.046875 803.792969 419.289062 802.402344 419.738281 C 801.015625 420.183594 799.722656 420.820312 798.515625 421.640625 C 797.128906 422.769531 795.714844 423.867188 794.277344 424.933594 C 792.84375 426.003906 791.382812 427.039062 789.902344 428.042969 C 788.421875 429.046875 786.917969 430.019531 785.394531 430.960938 C 783.871094 431.898438 782.332031 432.804688 780.769531 433.679688 C 779.207031 434.550781 777.625 435.390625 776.027344 436.195312 C 774.429688 437 772.816406 437.773438 771.183594 438.507812 C 769.550781 439.242188 767.90625 439.945312 766.242188 440.609375 C 764.582031 441.273438 762.90625 441.902344 761.21875 442.496094 C 759.53125 443.085938 757.828125 443.644531 756.117188 444.164062 C 754.402344 444.683594 752.679688 445.164062 750.949219 445.609375 C 749.214844 446.054688 747.472656 446.460938 745.722656 446.832031 C 743.96875 447.203125 742.210938 447.535156 740.445312 447.828125 C 738.683594 448.125 736.910156 448.378906 735.136719 448.597656 C 733.359375 448.816406 731.578125 448.996094 729.792969 449.136719 C 728.011719 449.277344 726.222656 449.382812 724.4375 449.445312 C 722.648438 449.511719 720.859375 449.535156 719.070312 449.523438 C 717.277344 449.511719 715.492188 449.460938 713.703125 449.371094 C 711.914062 449.28125 710.132812 449.152344 708.347656 448.988281 C 706.566406 448.820312 704.789062 448.617188 703.015625 448.371094 C 701.242188 448.128906 699.476562 447.847656 697.714844 447.527344 C 695.957031 447.210938 694.203125 446.851562 692.457031 446.457031 C 690.710938 446.0625 688.976562 445.632812 687.246094 445.164062 C 685.519531 444.691406 683.804688 444.1875 682.097656 443.644531 C 680.394531 443.101562 678.703125 442.519531 677.023438 441.902344 C 675.339844 441.289062 673.675781 440.636719 672.023438 439.945312 C 670.371094 439.257812 668.734375 438.535156 667.113281 437.777344 C 665.492188 437.019531 663.890625 436.226562 662.300781 435.398438 C 660.714844 434.570312 659.148438 433.710938 657.597656 432.8125 C 656.046875 431.917969 654.519531 430.992188 653.007812 430.03125 C 651.5 429.070312 650.011719 428.074219 648.542969 427.050781 C 647.078125 426.023438 645.632812 424.96875 644.210938 423.882812 C 642.789062 422.792969 641.394531 421.675781 640.019531 420.527344 C 638.984375 420.054688 637.90625 419.707031 636.785156 419.492188 C 635.664062 419.277344 634.535156 419.199219 633.394531 419.261719 C 632.257812 419.320312 631.140625 419.515625 630.050781 419.847656 C 628.957031 420.175781 627.921875 420.632812 626.941406 421.214844 C 624.074219 423.125 621.265625 425.117188 618.523438 427.199219 C 615.777344 429.28125 613.097656 431.441406 610.484375 433.6875 C 607.875 435.933594 605.332031 438.257812 602.863281 440.660156 C 600.394531 443.0625 598.003906 445.539062 595.6875 448.089844 C 593.371094 450.636719 591.136719 453.257812 588.980469 455.945312 C 586.824219 458.632812 584.753906 461.382812 582.769531 464.195312 C 580.785156 467.011719 578.886719 469.886719 577.078125 472.816406 C 575.269531 475.75 573.554688 478.734375 571.929688 481.769531 C 570.304688 484.808594 568.777344 487.894531 567.34375 491.027344 C 565.90625 494.15625 564.570312 497.332031 563.332031 500.542969 C 562.09375 503.757812 560.953125 507.007812 559.917969 510.292969 C 558.878906 513.578125 557.941406 516.890625 557.105469 520.230469 C 556.273438 523.574219 555.542969 526.9375 554.914062 530.324219 C 554.285156 533.710938 553.765625 537.117188 553.347656 540.535156 C 552.929688 543.953125 552.617188 547.382812 552.410156 550.820312 C 552.203125 554.261719 552.105469 557.703125 552.109375 561.144531 C 552.109375 562.085938 552.203125 563.019531 552.382812 563.945312 C 552.566406 564.867188 552.839844 565.765625 553.199219 566.632812 C 553.558594 567.503906 554 568.332031 554.523438 569.113281 C 555.046875 569.898438 555.640625 570.621094 556.308594 571.289062 C 556.972656 571.953125 557.699219 572.546875 558.480469 573.070312 C 559.265625 573.59375 560.089844 574.035156 560.960938 574.394531 C 561.832031 574.753906 562.726562 575.027344 563.652344 575.210938 C 564.574219 575.394531 565.507812 575.484375 566.449219 575.484375 L 875 575.484375 C 875.941406 575.484375 876.875 575.394531 877.796875 575.210938 C 878.722656 575.027344 879.617188 574.753906 880.488281 574.394531 C 881.359375 574.035156 882.1875 573.59375 882.96875 573.070312 C 883.75 572.546875 884.476562 571.953125 885.140625 571.289062 C 885.808594 570.621094 886.402344 569.898438 886.925781 569.113281 C 887.449219 568.332031 887.890625 567.503906 888.25 566.632812 C 888.609375 565.765625 888.882812 564.867188 889.066406 563.945312 C 889.25 563.019531 889.339844 562.085938 889.339844 561.144531 C 889.335938 557.710938 889.230469 554.273438 889.015625 550.84375 C 888.804688 547.414062 888.488281 543.992188 888.066406 540.582031 C 887.648438 537.171875 887.121094 533.777344 886.496094 530.398438 C 885.867188 527.019531 885.136719 523.660156 884.304688 520.324219 C 883.472656 516.992188 882.539062 513.683594 881.503906 510.40625 C 880.46875 507.128906 879.335938 503.886719 878.101562 500.679688 C 876.871094 497.46875 875.542969 494.300781 874.117188 491.175781 C 872.691406 488.046875 871.171875 484.964844 869.558594 481.929688 C 867.945312 478.898438 866.238281 475.914062 864.441406 472.984375 C 862.648438 470.050781 860.765625 467.179688 858.792969 464.363281 C 856.824219 461.546875 854.769531 458.792969 852.628906 456.105469 C 850.488281 453.414062 848.269531 450.792969 845.972656 448.234375 C 843.671875 445.679688 841.296875 443.199219 838.847656 440.789062 C 836.398438 438.378906 833.875 436.046875 831.28125 433.789062 C 828.691406 431.53125 826.03125 429.359375 823.304688 427.261719 C 820.582031 425.167969 817.792969 423.160156 814.945312 421.238281 Z M 814.945312 421.238281 " fill-opacity="1" fill-rule="nonzero"/></g><g clip-path="url(#8e111512ed)"><path fill="#cf0c9b" d="M 861.726562 629.871094 C 825.433594 629.871094 795.910156 600.34375 795.910156 564.054688 C 795.910156 527.761719 825.433594 498.234375 861.726562 498.234375 C 898.019531 498.234375 927.546875 527.761719 927.546875 564.054688 C 927.546875 600.34375 898.019531 629.871094 861.726562 629.871094 Z M 861.726562 510.710938 C 832.3125 510.710938 808.382812 534.640625 808.382812 564.054688 C 808.382812 593.46875 832.3125 617.398438 861.726562 617.398438 C 891.140625 617.398438 915.070312 593.46875 915.070312 564.054688 C 915.070312 534.640625 891.140625 510.710938 861.726562 510.710938 Z M 861.726562 510.710938 " fill-opacity="1" fill-rule="nonzero"/></g><path fill="#cf0c9b" d="M 861.980469 598.875 L 861.472656 598.875 C 857.128906 598.875 853.574219 595.320312 853.574219 590.976562 L 853.574219 537.128906 C 853.574219 532.785156 857.128906 529.230469 861.472656 529.230469 L 861.980469 529.230469 C 866.324219 529.230469 869.878906 532.785156 869.878906 537.128906 L 869.878906 590.976562 C 869.878906 595.320312 866.324219 598.875 861.980469 598.875 Z M 861.980469 598.875 " fill-opacity="1" fill-rule="nonzero"/><path fill="#cf0c9b" d="M 826.90625 563.960938 L 826.910156 564.46875 C 826.929688 568.8125 830.5 572.351562 834.84375 572.328125 L 888.6875 572.082031 C 893.03125 572.058594 896.570312 568.488281 896.550781 564.144531 L 896.546875 563.636719 C 896.527344 559.292969 892.957031 555.757812 888.613281 555.777344 L 834.765625 556.027344 C 830.421875 556.046875 826.886719 559.617188 826.90625 563.960938 Z M 826.90625 563.960938 " fill-opacity="1" fill-rule="nonzero"/></svg>