<svg xmlns="http://www.w3.org/2000/svg" xmlns:xlink="http://www.w3.org/1999/xlink" width="600px" zoomAndPan="magnify" viewBox="0 0 1440 809.999993" height="200px" preserveAspectRatio="xMidYMid meet" version="1.0"><path fill="#000000" d="M 720 471.816406 C 683.097656 471.816406 653.183594 441.902344 653.183594 405 C 653.183594 368.097656 683.097656 338.1875 720 338.1875 C 756.902344 338.1875 786.8125 368.097656 786.8125 405 C 786.8125 441.902344 756.902344 471.816406 720 471.816406 Z M 873.253906 373.761719 L 843.339844 370.21875 C 840.636719 360.609375 836.804688 351.253906 831.820312 342.367188 L 850.457031 318.722656 C 853.566406 314.777344 853.230469 309.128906 849.679688 305.582031 L 819.417969 275.320312 C 815.871094 271.769531 810.222656 271.433594 806.277344 274.542969 L 782.632812 293.179688 C 773.746094 288.195312 764.386719 284.363281 754.78125 281.660156 L 751.242188 251.746094 C 750.648438 246.757812 746.417969 243 741.394531 243 L 698.601562 243 C 693.578125 243 689.351562 246.757812 688.761719 251.746094 L 685.21875 281.660156 C 675.609375 284.363281 666.253906 288.195312 657.367188 293.179688 L 633.71875 274.542969 C 629.777344 271.433594 624.128906 271.769531 620.578125 275.320312 L 590.320312 305.582031 C 586.769531 309.128906 586.433594 314.777344 589.542969 318.722656 L 608.179688 342.367188 C 603.195312 351.253906 599.359375 360.609375 596.660156 370.21875 L 566.746094 373.761719 C 561.757812 374.351562 558 378.582031 558 383.601562 L 558 426.394531 C 558 431.421875 561.757812 435.648438 566.746094 436.242188 L 596.660156 439.78125 C 599.359375 449.386719 603.195312 458.746094 608.179688 467.632812 L 589.542969 491.277344 C 586.433594 495.222656 586.769531 500.871094 590.320312 504.417969 L 620.578125 534.679688 C 624.128906 538.230469 629.777344 538.566406 633.71875 535.457031 L 657.367188 516.820312 C 666.253906 521.804688 675.609375 525.636719 685.21875 528.339844 L 688.761719 558.253906 C 689.351562 563.242188 693.578125 567 698.601562 567 L 740.6875 567 C 745.621094 567 749.804688 563.371094 750.5 558.480469 L 754.78125 528.339844 C 764.386719 525.636719 773.746094 521.804688 782.632812 516.820312 L 806.277344 535.457031 C 810.222656 538.566406 815.871094 538.230469 819.417969 534.679688 L 849.679688 504.417969 C 853.230469 500.871094 853.566406 495.222656 850.457031 491.277344 L 831.820312 467.632812 C 836.804688 458.746094 840.636719 449.386719 843.339844 439.78125 L 873.253906 436.242188 C 878.242188 435.648438 882 431.421875 882 426.394531 L 882 383.601562 C 882 378.582031 878.242188 374.351562 873.253906 373.761719 " fill-opacity="1" fill-rule="nonzero"/></svg>