<svg xmlns="http://www.w3.org/2000/svg" xmlns:xlink="http://www.w3.org/1999/xlink" width="600px" zoomAndPan="magnify" viewBox="0 0 1440 809.999993" height="200px" preserveAspectRatio="xMidYMid meet" version="1.0"><defs><clipPath id="720f7f0a39"><path d="M 506.425781 262 L 933.925781 262 L 933.925781 548 L 506.425781 548 Z M 506.425781 262 " clip-rule="nonzero"/></clipPath><clipPath id="7d15e3ad26"><path d="M 792.378906 428.164062 L 933.378906 428.164062 L 933.378906 569.164062 L 792.378906 569.164062 Z M 792.378906 428.164062 " clip-rule="nonzero"/></clipPath></defs><g clip-path="url(#720f7f0a39)"><path fill="#000000" d="M 720.175781 547.496094 C 580.003906 547.496094 510.566406 415.5625 507.664062 409.945312 C 507.257812 409.152344 506.945312 408.320312 506.738281 407.453125 C 506.527344 406.585938 506.421875 405.707031 506.421875 404.8125 C 506.421875 403.921875 506.527344 403.039062 506.738281 402.171875 C 506.945312 401.304688 507.257812 400.472656 507.664062 399.679688 C 510.566406 394.066406 580.003906 262.242188 720.175781 262.242188 C 860.351562 262.242188 929.808594 394.066406 932.691406 399.679688 C 933.097656 400.472656 933.40625 401.304688 933.617188 402.171875 C 933.828125 403.039062 933.933594 403.921875 933.933594 404.8125 C 933.933594 405.707031 933.828125 406.585938 933.617188 407.453125 C 933.40625 408.320312 933.097656 409.152344 932.691406 409.945312 C 929.808594 415.5625 860.375 547.496094 720.175781 547.496094 Z M 530.59375 404.800781 C 544.675781 428.453125 608.757812 525.035156 720.175781 525.035156 C 831.597656 525.035156 895.8125 428.453125 909.761719 404.9375 C 895.675781 381.285156 831.597656 284.703125 720.175781 284.703125 C 608.757812 284.703125 544.542969 381.285156 530.59375 404.800781 Z M 720.175781 503.160156 C 718.566406 503.160156 716.953125 503.117188 715.34375 503.039062 C 713.734375 502.960938 712.125 502.84375 710.523438 502.683594 C 708.917969 502.527344 707.320312 502.332031 705.722656 502.09375 C 704.128906 501.859375 702.542969 501.582031 700.960938 501.269531 C 699.378906 500.957031 697.804688 500.601562 696.242188 500.210938 C 694.679688 499.820312 693.125 499.390625 691.582031 498.925781 C 690.039062 498.457031 688.511719 497.953125 686.992188 497.410156 C 685.472656 496.867188 683.96875 496.289062 682.480469 495.671875 C 680.992188 495.058594 679.519531 494.40625 678.0625 493.71875 C 676.605469 493.03125 675.164062 492.304688 673.742188 491.546875 C 672.320312 490.789062 670.917969 489.996094 669.535156 489.167969 C 668.152344 488.339844 666.792969 487.480469 665.449219 486.585938 C 664.109375 485.691406 662.792969 484.765625 661.5 483.808594 C 660.203125 482.847656 658.933594 481.859375 657.6875 480.835938 C 656.441406 479.816406 655.21875 478.765625 654.027344 477.683594 C 652.832031 476.605469 651.664062 475.496094 650.523438 474.355469 C 649.382812 473.21875 648.273438 472.054688 647.191406 470.863281 C 646.109375 469.667969 645.054688 468.449219 644.03125 467.207031 C 643.007812 465.960938 642.019531 464.695312 641.058594 463.402344 C 640.097656 462.109375 639.167969 460.792969 638.273438 459.457031 C 637.378906 458.117188 636.515625 456.757812 635.6875 455.378906 C 634.859375 453.996094 634.0625 452.597656 633.304688 451.179688 C 632.542969 449.757812 631.820312 448.324219 631.128906 446.867188 C 630.441406 445.414062 629.789062 443.941406 629.171875 442.457031 C 628.554688 440.96875 627.972656 439.46875 627.429688 437.953125 C 626.886719 436.4375 626.382812 434.910156 625.914062 433.371094 C 625.445312 431.828125 625.015625 430.277344 624.625 428.71875 C 624.234375 427.15625 623.878906 425.585938 623.566406 424.007812 C 623.25 422.429688 622.976562 420.84375 622.738281 419.253906 C 622.503906 417.660156 622.304688 416.0625 622.148438 414.460938 C 621.988281 412.859375 621.871094 411.257812 621.792969 409.648438 C 621.710938 408.042969 621.671875 406.433594 621.671875 404.824219 C 621.671875 403.214844 621.710938 401.605469 621.792969 400 C 621.871094 398.390625 621.988281 396.789062 622.148438 395.1875 C 622.304688 393.585938 622.503906 391.988281 622.738281 390.394531 C 622.976562 388.804688 623.25 387.21875 623.566406 385.640625 C 623.878906 384.0625 624.234375 382.492188 624.625 380.929688 C 625.015625 379.371094 625.445312 377.820312 625.914062 376.277344 C 626.382812 374.738281 626.886719 373.210938 627.429688 371.695312 C 627.972656 370.179688 628.554688 368.679688 629.171875 367.191406 C 629.789062 365.707031 630.441406 364.234375 631.128906 362.78125 C 631.820312 361.324219 632.542969 359.890625 633.304688 358.46875 C 634.0625 357.050781 634.859375 355.652344 635.6875 354.269531 C 636.515625 352.890625 637.378906 351.53125 638.273438 350.191406 C 639.167969 348.855469 640.097656 347.539062 641.058594 346.246094 C 642.019531 344.953125 643.007812 343.683594 644.03125 342.441406 C 645.054688 341.199219 646.109375 339.980469 647.191406 338.785156 C 648.273438 337.59375 649.382812 336.429688 650.523438 335.292969 C 651.664062 334.152344 652.832031 333.042969 654.027344 331.964844 C 655.21875 330.882812 656.441406 329.832031 657.6875 328.8125 C 658.933594 327.789062 660.203125 326.800781 661.5 325.839844 C 662.792969 324.882812 664.109375 323.957031 665.449219 323.0625 C 666.792969 322.167969 668.152344 321.308594 669.535156 320.480469 C 670.917969 319.652344 672.320312 318.859375 673.742188 318.101562 C 675.164062 317.34375 676.605469 316.617188 678.0625 315.929688 C 679.519531 315.242188 680.992188 314.589844 682.480469 313.976562 C 683.96875 313.359375 685.472656 312.78125 686.992188 312.238281 C 688.511719 311.695312 690.039062 311.191406 691.582031 310.722656 C 693.125 310.257812 694.679688 309.828125 696.242188 309.4375 C 697.804688 309.046875 699.378906 308.691406 700.960938 308.378906 C 702.542969 308.066406 704.128906 307.789062 705.722656 307.554688 C 707.320312 307.316406 708.917969 307.121094 710.523438 306.964844 C 712.125 306.804688 713.734375 306.6875 715.34375 306.609375 C 716.953125 306.527344 718.566406 306.488281 720.175781 306.488281 C 721.789062 306.488281 723.402344 306.527344 725.011719 306.609375 C 726.621094 306.6875 728.226562 306.804688 729.832031 306.964844 C 731.4375 307.121094 733.035156 307.316406 734.632812 307.554688 C 736.226562 307.789062 737.8125 308.066406 739.394531 308.378906 C 740.976562 308.691406 742.546875 309.046875 744.113281 309.4375 C 745.675781 309.828125 747.230469 310.257812 748.773438 310.722656 C 750.316406 311.191406 751.84375 311.695312 753.363281 312.238281 C 754.878906 312.78125 756.382812 313.359375 757.875 313.976562 C 759.363281 314.589844 760.835938 315.242188 762.292969 315.929688 C 763.75 316.617188 765.191406 317.34375 766.613281 318.101562 C 768.035156 318.859375 769.4375 319.652344 770.820312 320.480469 C 772.203125 321.308594 773.5625 322.167969 774.902344 323.0625 C 776.246094 323.957031 777.5625 324.882812 778.855469 325.839844 C 780.152344 326.800781 781.421875 327.789062 782.667969 328.8125 C 783.914062 329.832031 785.136719 330.882812 786.328125 331.964844 C 787.523438 333.042969 788.691406 334.152344 789.832031 335.292969 C 790.972656 336.429688 792.082031 337.59375 793.164062 338.785156 C 794.246094 339.980469 795.300781 341.199219 796.324219 342.441406 C 797.34375 343.683594 798.335938 344.953125 799.296875 346.246094 C 800.257812 347.539062 801.1875 348.855469 802.082031 350.191406 C 802.976562 351.53125 803.839844 352.890625 804.667969 354.269531 C 805.496094 355.652344 806.292969 357.050781 807.050781 358.46875 C 807.8125 359.890625 808.535156 361.324219 809.226562 362.78125 C 809.914062 364.234375 810.566406 365.707031 811.183594 367.191406 C 811.800781 368.679688 812.382812 370.179688 812.925781 371.695312 C 813.46875 373.210938 813.972656 374.738281 814.441406 376.277344 C 814.910156 377.820312 815.339844 379.371094 815.730469 380.929688 C 816.121094 382.492188 816.476562 384.0625 816.789062 385.640625 C 817.105469 387.21875 817.378906 388.804688 817.617188 390.394531 C 817.851562 391.988281 818.050781 393.585938 818.207031 395.1875 C 818.367188 396.789062 818.484375 398.390625 818.5625 400 C 818.644531 401.605469 818.683594 403.214844 818.683594 404.824219 C 818.679688 406.433594 818.640625 408.039062 818.558594 409.648438 C 818.476562 411.253906 818.359375 412.859375 818.199219 414.460938 C 818.039062 416.058594 817.839844 417.65625 817.601562 419.246094 C 817.363281 420.839844 817.085938 422.421875 816.769531 424 C 816.457031 425.578125 816.101562 427.148438 815.707031 428.707031 C 815.316406 430.269531 814.882812 431.816406 814.414062 433.355469 C 813.945312 434.894531 813.441406 436.421875 812.894531 437.9375 C 812.351562 439.453125 811.773438 440.953125 811.152344 442.4375 C 810.535156 443.921875 809.882812 445.394531 809.191406 446.847656 C 808.503906 448.300781 807.777344 449.738281 807.019531 451.15625 C 806.257812 452.574219 805.464844 453.972656 804.632812 455.355469 C 803.804688 456.734375 802.941406 458.09375 802.046875 459.429688 C 801.152344 460.765625 800.222656 462.082031 799.261719 463.375 C 798.300781 464.664062 797.3125 465.933594 796.289062 467.175781 C 795.265625 468.421875 794.214844 469.636719 793.132812 470.828125 C 792.046875 472.023438 790.9375 473.1875 789.796875 474.324219 C 788.660156 475.460938 787.492188 476.570312 786.296875 477.652344 C 785.105469 478.730469 783.882812 479.78125 782.636719 480.804688 C 781.390625 481.824219 780.121094 482.8125 778.828125 483.773438 C 777.535156 484.730469 776.21875 485.65625 774.878906 486.550781 C 773.539062 487.445312 772.175781 488.308594 770.792969 489.132812 C 769.414062 489.960938 768.011719 490.753906 766.589844 491.515625 C 765.167969 492.273438 763.730469 492.996094 762.273438 493.6875 C 760.816406 494.375 759.34375 495.027344 757.855469 495.644531 C 756.367188 496.261719 754.863281 496.839844 753.347656 497.382812 C 751.832031 497.925781 750.300781 498.429688 748.757812 498.898438 C 747.21875 499.367188 745.664062 499.796875 744.101562 500.191406 C 742.539062 500.582031 740.96875 500.933594 739.386719 501.25 C 737.808594 501.566406 736.21875 501.84375 734.625 502.078125 C 733.03125 502.316406 731.433594 502.515625 729.828125 502.675781 C 728.226562 502.835938 726.617188 502.953125 725.007812 503.035156 C 723.398438 503.117188 721.789062 503.15625 720.175781 503.160156 Z M 720.175781 328.949219 C 718.933594 328.949219 717.691406 328.980469 716.449219 329.042969 C 715.207031 329.101562 713.964844 329.195312 712.726562 329.316406 C 711.488281 329.4375 710.253906 329.589844 709.023438 329.773438 C 707.792969 329.953125 706.570312 330.167969 705.347656 330.410156 C 704.128906 330.652344 702.917969 330.921875 701.710938 331.226562 C 700.503906 331.527344 699.304688 331.859375 698.113281 332.21875 C 696.925781 332.578125 695.742188 332.96875 694.570312 333.386719 C 693.402344 333.804688 692.242188 334.25 691.089844 334.726562 C 689.941406 335.203125 688.804688 335.703125 687.679688 336.234375 C 686.558594 336.765625 685.445312 337.324219 684.347656 337.910156 C 683.25 338.496094 682.171875 339.105469 681.101562 339.746094 C 680.035156 340.382812 678.984375 341.046875 677.953125 341.738281 C 676.917969 342.425781 675.898438 343.140625 674.902344 343.882812 C 673.902344 344.621094 672.921875 345.386719 671.960938 346.171875 C 671 346.960938 670.058594 347.773438 669.136719 348.605469 C 668.214844 349.441406 667.3125 350.296875 666.433594 351.171875 C 665.554688 352.050781 664.695312 352.949219 663.863281 353.871094 C 663.027344 354.789062 662.214844 355.730469 661.425781 356.691406 C 660.636719 357.652344 659.871094 358.628906 659.128906 359.625 C 658.386719 360.625 657.671875 361.640625 656.980469 362.671875 C 656.289062 363.703125 655.625 364.753906 654.984375 365.816406 C 654.347656 366.882812 653.734375 367.960938 653.148438 369.058594 C 652.5625 370.152344 652 371.261719 651.46875 372.382812 C 650.9375 373.507812 650.433594 374.640625 649.957031 375.789062 C 649.480469 376.9375 649.035156 378.09375 648.617188 379.261719 C 648.195312 380.433594 647.804688 381.609375 647.445312 382.800781 C 647.085938 383.988281 646.753906 385.183594 646.449219 386.386719 C 646.148438 387.59375 645.875 388.804688 645.632812 390.023438 C 645.390625 391.238281 645.175781 392.464844 644.996094 393.691406 C 644.8125 394.917969 644.660156 396.152344 644.539062 397.386719 C 644.417969 398.621094 644.324219 399.859375 644.265625 401.101562 C 644.203125 402.339844 644.171875 403.582031 644.171875 404.824219 C 644.171875 406.066406 644.203125 407.308594 644.265625 408.546875 C 644.324219 409.789062 644.417969 411.023438 644.539062 412.261719 C 644.660156 413.496094 644.8125 414.730469 644.996094 415.957031 C 645.175781 417.183594 645.390625 418.410156 645.632812 419.625 C 645.875 420.84375 646.148438 422.054688 646.449219 423.261719 C 646.753906 424.464844 647.085938 425.660156 647.445312 426.847656 C 647.804688 428.039062 648.195312 429.214844 648.617188 430.386719 C 649.035156 431.554688 649.480469 432.710938 649.957031 433.859375 C 650.433594 435.007812 650.9375 436.140625 651.46875 437.265625 C 652 438.386719 652.5625 439.496094 653.148438 440.589844 C 653.734375 441.6875 654.347656 442.765625 654.984375 443.832031 C 655.625 444.894531 656.289062 445.945312 656.980469 446.976562 C 657.671875 448.007812 658.386719 449.023438 659.128906 450.023438 C 659.871094 451.019531 660.636719 451.996094 661.425781 452.957031 C 662.214844 453.917969 663.027344 454.859375 663.863281 455.777344 C 664.695312 456.699219 665.554688 457.597656 666.433594 458.476562 C 667.3125 459.351562 668.214844 460.207031 669.136719 461.042969 C 670.058594 461.875 671 462.6875 671.960938 463.476562 C 672.921875 464.261719 673.902344 465.027344 674.902344 465.765625 C 675.898438 466.507812 676.917969 467.21875 677.953125 467.910156 C 678.984375 468.601562 680.035156 469.265625 681.101562 469.902344 C 682.171875 470.542969 683.25 471.152344 684.347656 471.738281 C 685.445312 472.324219 686.558594 472.882812 687.679688 473.414062 C 688.804688 473.945312 689.941406 474.445312 691.089844 474.921875 C 692.242188 475.398438 693.402344 475.84375 694.570312 476.261719 C 695.742188 476.679688 696.925781 477.070312 698.113281 477.429688 C 699.304688 477.789062 700.503906 478.121094 701.710938 478.421875 C 702.917969 478.726562 704.128906 478.996094 705.347656 479.238281 C 706.570312 479.480469 707.792969 479.695312 709.023438 479.875 C 710.253906 480.058594 711.488281 480.210938 712.726562 480.332031 C 713.964844 480.453125 715.207031 480.546875 716.449219 480.605469 C 717.691406 480.667969 718.933594 480.699219 720.175781 480.699219 C 721.421875 480.699219 722.664062 480.667969 723.90625 480.605469 C 725.148438 480.546875 726.390625 480.453125 727.628906 480.332031 C 728.863281 480.210938 730.097656 480.058594 731.328125 479.875 C 732.558594 479.695312 733.785156 479.480469 735.003906 479.238281 C 736.226562 478.996094 737.4375 478.726562 738.644531 478.421875 C 739.851562 478.121094 741.050781 477.789062 742.242188 477.429688 C 743.429688 477.070312 744.613281 476.679688 745.78125 476.261719 C 746.953125 475.84375 748.113281 475.398438 749.261719 474.921875 C 750.414062 474.445312 751.550781 473.945312 752.671875 473.414062 C 753.796875 472.882812 754.910156 472.324219 756.007812 471.738281 C 757.101562 471.152344 758.183594 470.542969 759.25 469.902344 C 760.320312 469.265625 761.371094 468.601562 762.402344 467.910156 C 763.4375 467.21875 764.453125 466.507812 765.453125 465.765625 C 766.453125 465.027344 767.433594 464.261719 768.394531 463.476562 C 769.355469 462.6875 770.296875 461.875 771.21875 461.042969 C 772.140625 460.207031 773.042969 459.351562 773.921875 458.476562 C 774.800781 457.597656 775.65625 456.699219 776.492188 455.777344 C 777.328125 454.859375 778.140625 453.917969 778.929688 452.957031 C 779.71875 451.996094 780.484375 451.019531 781.226562 450.023438 C 781.964844 449.023438 782.683594 448.007812 783.375 446.976562 C 784.0625 445.945312 784.730469 444.894531 785.367188 443.832031 C 786.007812 442.765625 786.621094 441.6875 787.207031 440.589844 C 787.792969 439.496094 788.351562 438.386719 788.886719 437.265625 C 789.417969 436.140625 789.921875 435.007812 790.398438 433.859375 C 790.871094 432.710938 791.320312 431.554688 791.738281 430.386719 C 792.160156 429.214844 792.546875 428.039062 792.910156 426.847656 C 793.269531 425.660156 793.601562 424.464844 793.90625 423.261719 C 794.207031 422.054688 794.480469 420.84375 794.722656 419.625 C 794.964844 418.410156 795.175781 417.183594 795.359375 415.957031 C 795.542969 414.730469 795.695312 413.496094 795.816406 412.261719 C 795.9375 411.023438 796.03125 409.789062 796.089844 408.546875 C 796.152344 407.308594 796.183594 406.066406 796.183594 404.824219 C 796.179688 403.582031 796.148438 402.34375 796.085938 401.101562 C 796.027344 399.863281 795.933594 398.625 795.808594 397.390625 C 795.6875 396.152344 795.535156 394.921875 795.351562 393.695312 C 795.167969 392.464844 794.953125 391.242188 794.710938 390.027344 C 794.46875 388.808594 794.195312 387.597656 793.890625 386.394531 C 793.589844 385.191406 793.257812 383.996094 792.894531 382.808594 C 792.53125 381.617188 792.140625 380.441406 791.722656 379.273438 C 791.304688 378.105469 790.855469 376.945312 790.378906 375.800781 C 789.902344 374.652344 789.398438 373.519531 788.867188 372.394531 C 788.332031 371.273438 787.773438 370.164062 787.1875 369.070312 C 786.601562 367.976562 785.988281 366.898438 785.347656 365.832031 C 784.710938 364.765625 784.042969 363.71875 783.351562 362.6875 C 782.660156 361.65625 781.945312 360.640625 781.203125 359.644531 C 780.464844 358.648438 779.699219 357.667969 778.910156 356.707031 C 778.121094 355.75 777.308594 354.808594 776.472656 353.890625 C 775.636719 352.96875 774.78125 352.070312 773.902344 351.191406 C 773.023438 350.316406 772.121094 349.460938 771.199219 348.625 C 770.277344 347.792969 769.335938 346.980469 768.375 346.195312 C 767.414062 345.40625 766.433594 344.640625 765.4375 343.902344 C 764.4375 343.164062 763.421875 342.449219 762.386719 341.757812 C 761.355469 341.070312 760.304688 340.40625 759.238281 339.765625 C 758.171875 339.128906 757.089844 338.515625 755.992188 337.929688 C 754.894531 337.34375 753.785156 336.785156 752.660156 336.253906 C 751.539062 335.722656 750.402344 335.21875 749.253906 334.746094 C 748.105469 334.269531 746.945312 333.820312 745.773438 333.402344 C 744.601562 332.984375 743.421875 332.59375 742.234375 332.234375 C 741.042969 331.871094 739.84375 331.539062 738.640625 331.238281 C 737.433594 330.933594 736.21875 330.664062 735 330.417969 C 733.78125 330.175781 732.554688 329.964844 731.328125 329.78125 C 730.097656 329.597656 728.863281 329.445312 727.625 329.320312 C 726.386719 329.199219 725.148438 329.105469 723.90625 329.046875 C 722.664062 328.984375 721.421875 328.953125 720.175781 328.949219 Z M 720.175781 328.949219 " fill-opacity="1" fill-rule="nonzero"/></g><g clip-path="url(#7d15e3ad26)"><path fill="#cf0c9b" d="M 862.972656 527.871094 C 846.890625 527.871094 833.855469 514.835938 833.855469 498.757812 C 833.855469 482.675781 846.890625 469.640625 862.972656 469.640625 C 879.050781 469.640625 892.085938 482.675781 892.085938 498.757812 C 892.085938 514.835938 879.050781 527.871094 862.972656 527.871094 Z M 929.753906 485.144531 L 916.71875 483.601562 C 915.542969 479.414062 913.871094 475.335938 911.699219 471.464844 L 919.820312 461.160156 C 921.175781 459.441406 921.03125 456.980469 919.480469 455.433594 L 906.296875 442.246094 C 904.75 440.699219 902.289062 440.550781 900.566406 441.910156 L 890.265625 450.03125 C 886.390625 447.859375 882.3125 446.1875 878.128906 445.007812 L 876.585938 431.972656 C 876.328125 429.800781 874.484375 428.164062 872.296875 428.164062 L 853.648438 428.164062 C 851.460938 428.164062 849.617188 429.800781 849.359375 431.972656 L 847.816406 445.007812 C 843.628906 446.1875 839.550781 447.859375 835.679688 450.03125 L 825.375 441.910156 C 823.65625 440.550781 821.195312 440.699219 819.648438 442.246094 L 806.460938 455.433594 C 804.914062 456.980469 804.769531 459.441406 806.125 461.160156 L 814.246094 471.464844 C 812.074219 475.335938 810.402344 479.414062 809.226562 483.601562 L 796.1875 485.144531 C 794.015625 485.402344 792.378906 487.242188 792.378906 489.433594 L 792.378906 508.078125 C 792.378906 510.269531 794.015625 512.113281 796.1875 512.371094 L 809.226562 513.914062 C 810.402344 518.097656 812.074219 522.175781 814.246094 526.050781 L 806.125 536.351562 C 804.769531 538.070312 804.914062 540.535156 806.460938 542.078125 L 819.648438 555.265625 C 821.195312 556.8125 823.65625 556.960938 825.375 555.605469 L 835.679688 547.484375 C 839.550781 549.65625 843.628906 551.324219 847.816406 552.503906 L 849.359375 565.539062 C 849.617188 567.714844 851.460938 569.351562 853.648438 569.351562 L 871.988281 569.351562 C 874.136719 569.351562 875.960938 567.769531 876.261719 565.636719 L 878.128906 552.503906 C 882.3125 551.324219 886.390625 549.65625 890.265625 547.484375 L 900.566406 555.605469 C 902.289062 556.960938 904.75 556.8125 906.296875 555.265625 L 919.480469 542.078125 C 921.03125 540.535156 921.175781 538.070312 919.820312 536.351562 L 911.699219 526.050781 C 913.871094 522.175781 915.542969 518.097656 916.71875 513.914062 L 929.753906 512.371094 C 931.929688 512.113281 933.566406 510.269531 933.566406 508.078125 L 933.566406 489.433594 C 933.566406 487.242188 931.929688 485.402344 929.753906 485.144531 " fill-opacity="1" fill-rule="nonzero"/></g></svg>